<mxfile modified="2020-12-10T10:53:40.639Z" host="app.diagrams.net" agent="5.0 (Macintosh; Intel Mac OS X 10_13_6) AppleWebKit/537.36 (KHTML, like Gecko) Chrome/87.0.4280.88 Safari/537.36" etag="bwyBbaaFQG_-xDa4oWQx" version="13.9.9" type="github">
  <diagram id="WI9T0HZ2pTsCkuznbFz-" name="Page-1">
    <mxGraphModel dx="896" dy="591" grid="1" gridSize="10" guides="1" tooltips="1" connect="1" arrows="1" fold="1" page="1" pageScale="1" pageWidth="1169" pageHeight="827" math="0" shadow="0">
      <root>
        <mxCell id="0" />
        <mxCell id="1" parent="0" />
        <mxCell id="HA4ANWcjjfDp0IVUmo1o-27" style="edgeStyle=orthogonalEdgeStyle;rounded=0;orthogonalLoop=1;jettySize=auto;html=1;entryX=0;entryY=0.25;entryDx=0;entryDy=0;startArrow=classic;startFill=1;strokeColor=#d79b00;fillColor=#ffe6cc;" parent="1" source="HA4ANWcjjfDp0IVUmo1o-1" target="HA4ANWcjjfDp0IVUmo1o-24" edge="1">
          <mxGeometry relative="1" as="geometry" />
        </mxCell>
        <mxCell id="HA4ANWcjjfDp0IVUmo1o-29" value="TCP" style="edgeLabel;html=1;align=center;verticalAlign=middle;resizable=0;points=[];" parent="HA4ANWcjjfDp0IVUmo1o-27" vertex="1" connectable="0">
          <mxGeometry x="-0.4347" y="1" relative="1" as="geometry">
            <mxPoint x="9.79" y="1" as="offset" />
          </mxGeometry>
        </mxCell>
        <mxCell id="HA4ANWcjjfDp0IVUmo1o-1" value="A" style="shape=image;verticalLabelPosition=bottom;labelBackgroundColor=#ffffff;verticalAlign=top;aspect=fixed;imageAspect=0;image=data:image/svg+xml,PHN2ZyB4bWxuczpkYz0iaHR0cDovL3B1cmwub3JnL2RjL2VsZW1lbnRzLzEuMS8iIHhtbG5zOmNjPSJodHRwOi8vY3JlYXRpdmVjb21tb25zLm9yZy9ucyMiIHhtbG5zOnJkZj0iaHR0cDovL3d3dy53My5vcmcvMTk5OS8wMi8yMi1yZGYtc3ludGF4LW5zIyIgeG1sbnM6c3ZnPSJodHRwOi8vd3d3LnczLm9yZy8yMDAwL3N2ZyIgeG1sbnM9Imh0dHA6Ly93d3cudzMub3JnLzIwMDAvc3ZnIiB4bWxuczpzb2RpcG9kaT0iaHR0cDovL3NvZGlwb2RpLnNvdXJjZWZvcmdlLm5ldC9EVEQvc29kaXBvZGktMC5kdGQiIHhtbG5zOmlua3NjYXBlPSJodHRwOi8vd3d3Lmlua3NjYXBlLm9yZy9uYW1lc3BhY2VzL2lua3NjYXBlIiB2ZXJzaW9uPSIxLjEiIGlkPSJzdmc4NTcyNyIgaW5rc2NhcGU6dmVyc2lvbj0iMC45Mi4zICgyNDA1NTQ2LCAyMDE4LTAzLTExKSIgc29kaXBvZGk6ZG9jbmFtZT0ibW9iaWxlX2FwcHMuc3ZnIiB4PSIwcHgiIHk9IjBweCIgdmlld0JveD0iMCAwIDQ0LjMzIDY0LjMzOTk5MyIgeG1sOnNwYWNlPSJwcmVzZXJ2ZSIgd2lkdGg9IjQ0LjMzMDAwMiIgaGVpZ2h0PSI2NC4zMzk5OTYiPjxtZXRhZGF0YSBpZD0ibWV0YWRhdGE0NDI3Ij48cmRmOlJERj48Y2M6V29yayByZGY6YWJvdXQ9IiI+PGRjOmZvcm1hdD5pbWFnZS9zdmcreG1sPC9kYzpmb3JtYXQ+PGRjOnR5cGUgcmRmOnJlc291cmNlPSJodHRwOi8vcHVybC5vcmcvZGMvZGNtaXR5cGUvU3RpbGxJbWFnZSIvPjxkYzp0aXRsZS8+PC9jYzpXb3JrPjwvcmRmOlJERj48L21ldGFkYXRhPjxkZWZzIGlkPSJkZWZzNDQyNSI+JiN4YTsJJiN4YTsmI3hhOwkmI3hhOyYjeGE7CSYjeGE7JiN4YTsJJiN4YTsmI3hhOwkmI3hhOyYjeGE7CSYjeGE7JiN4YTsJJiN4YTsmI3hhOwkmI3hhOyYjeGE7CSYjeGE7JiN4YTsJJiN4YTsmI3hhOwkJJiN4YTsJJiN4YTsJCSYjeGE7CSYjeGE7CQkmI3hhOwkmI3hhOwkJJiN4YTsJJiN4YTsJCSYjeGE7CSYjeGE7CQkmI3hhOwkmI3hhOwkJJiN4YTsJJiN4YTsJCSYjeGE7CSYjeGE7CQkmI3hhOwkmI3hhOwkJJiN4YTsJPC9kZWZzPiYjeGE7PGZpbHRlciBpZD0iZmlsdGVyXzIiPiYjeGE7CTxmZUdhdXNzaWFuQmx1ciBpZD0iZmVHYXVzc2lhbkJsdXI4NTYzNiIgc3RkRGV2aWF0aW9uPSIyIi8+JiN4YTs8L2ZpbHRlcj4mI3hhOzxzb2RpcG9kaTpuYW1lZHZpZXcgYm9yZGVyY29sb3I9IiM2NjY2NjYiIGJvcmRlcm9wYWNpdHk9IjEiIGZpdC1tYXJnaW4tYm90dG9tPSIwIiBmaXQtbWFyZ2luLWxlZnQ9IjAiIGZpdC1tYXJnaW4tcmlnaHQ9IjAiIGZpdC1tYXJnaW4tdG9wPSIwIiBncmlkdG9sZXJhbmNlPSIxMCIgZ3VpZGV0b2xlcmFuY2U9IjEwIiBpZD0ibmFtZWR2aWV3ODU3MjkiIGlua3NjYXBlOmN1cnJlbnQtbGF5ZXI9InN2Zzg1NzI3IiBpbmtzY2FwZTpjeD0iLTEzLjk5MTk2MyIgaW5rc2NhcGU6Y3k9IjI4LjEwNjUyNCIgaW5rc2NhcGU6cGFnZW9wYWNpdHk9IjAiIGlua3NjYXBlOnBhZ2VzaGFkb3c9IjIiIGlua3NjYXBlOndpbmRvdy1oZWlnaHQ9IjEwMTciIGlua3NjYXBlOndpbmRvdy1tYXhpbWl6ZWQ9IjEiIGlua3NjYXBlOndpbmRvdy13aWR0aD0iMTkyMCIgaW5rc2NhcGU6d2luZG93LXg9Ii04IiBpbmtzY2FwZTp3aW5kb3cteT0iLTgiIGlua3NjYXBlOnpvb209IjcuMzIwNTc3NCIgb2JqZWN0dG9sZXJhbmNlPSIxMCIgcGFnZWNvbG9yPSIjZmZmZmZmIiBzaG93Z3JpZD0iZmFsc2UiPiYjeGE7CTwvc29kaXBvZGk6bmFtZWR2aWV3PiYjeGE7JiN4YTs8cGF0aCBpZD0icGF0aDg1NjQ5IiBpbmtzY2FwZTpjb25uZWN0b3ItY3VydmF0dXJlPSIwIiBzdHlsZT0iZmlsbDojM2UzZTNlIiBkPSJtIDQ0LjMzLDYwLjQ4IGMgMCwyLjE0IC0xLjczLDMuODYgLTMuODYsMy44NiBIIDMuODYgQyAxLjczLDY0LjM0IDAsNjIuNjIgMCw2MC40OCBWIDMuODYgQyAwLDEuNzMgMS43MywwIDMuODYsMCBoIDM2LjYxIGMgMi4xMywwIDMuODYsMS43MyAzLjg2LDMuODYgeiIvPiYjeGE7JiN4YTs8cmVjdCBpZD0icmVjdDg1NjU3IiB4PSIyLjg2MDAwMDYiIHk9IjYuNDI5OTk5OCIgc3R5bGU9ImZpbGw6IzU5YjRkOSIgd2lkdGg9IjM4LjYxMDAwMSIgaGVpZ2h0PSI0NS4zMzAwMDIiLz4mI3hhOyYjeGE7PHBhdGggaWQ9InBhdGg4NTY2NSIgaW5rc2NhcGU6Y29ubmVjdG9yLWN1cnZhdHVyZT0iMCIgc3R5bGU9ImZpbGw6I2ZmZmZmZiIgZD0ibSAyNS44OSw1OC4wNSBjIDAsMi4wNSAtMS42NywzLjcxIC0zLjcyLDMuNzEgLTIuMDUsMCAtMy43MiwtMS42NiAtMy43MiwtMy43MSAwLC0yLjA2IDEuNjcsLTMuNzIgMy43MiwtMy43MiAyLjA1LDAgMy43MiwxLjY2IDMuNzIsMy43MiB6Ii8+JiN4YTsmI3hhOzxwYXRoIGlkPSJwYXRoODU2NzMiIGlua3NjYXBlOmNvbm5lY3Rvci1jdXJ2YXR1cmU9IjAiIHN0eWxlPSJmaWxsOiNiOGQ0MzIiIGQ9Im0gMjQuNiw1OC4wNiBjIDAsMS4zNCAtMS4wOSwyLjQzIC0yLjQzLDIuNDMgLTEuMzUsMCAtMi40NCwtMS4wOSAtMi40NCwtMi40MyAwLC0xLjM1IDEuMDksLTIuNDQgMi40NCwtMi40NCAxLjM0LDAgMi40MywxLjA5IDIuNDMsMi40NCB6Ii8+JiN4YTsmI3hhOyYjeGE7JiN4YTsmI3hhOyYjeGE7PHBhdGggaWQ9InBhdGg4NTY5NyIgaW5rc2NhcGU6Y29ubmVjdG9yLWN1cnZhdHVyZT0iMCIgc3R5bGU9ImZpbGw6I2ZmZmZmZiIgZD0ibSAyOC43NCwzLjYzIGMgMCwwLjUyIC0wLjQyLDAuOTQgLTAuOTUsMC45NCBIIDE2LjU0IGMgLTAuNTIsMCAtMC45NSwtMC40MiAtMC45NSwtMC45NCAwLC0wLjUzIDAuNDMsLTAuOTYgMC45NSwtMC45NiBoIDExLjI1IGMgMC41MywwIDAuOTUsMC40MyAwLjk1LDAuOTYgeiIvPiYjeGE7JiN4YTs8cGF0aCBpZD0icGF0aDg1NzA1IiBpbmtzY2FwZTpjb25uZWN0b3ItY3VydmF0dXJlPSIwIiBzdHlsZT0iZmlsbDojZmZmZmZmIiBkPSJtIDIyLjIsMjcuNDIgYyAtMC4wNiwwIC0wLjExLC0wLjAxIC0wLjE3LC0wLjA0IEwgMTAuNywyMC44NCBjIC0wLjEsLTAuMDcgLTAuMTcsLTAuMTggLTAuMTcsLTAuMyAwLC0wLjEyIDAuMDcsLTAuMjQgMC4xNywtMC4zIGwgMTEuMjYsLTYuNDkgYyAwLjExLC0wLjA2IDAuMjQsLTAuMDYgMC4zNCwwIGwgMTEuMzMsNi41NCBjIDAuMTEsMC4wNiAwLjE3LDAuMTcgMC4xNywwLjI5IDAsMC4xMyAtMC4wNiwwLjI0IC0wLjE3LDAuMyBsIC0xMS4yNSw2LjUgYyAtMC4wNiwwLjAzIC0wLjExLDAuMDQgLTAuMTgsMC4wNCB6Ii8+JiN4YTsmI3hhOzxwYXRoIGlkPSJwYXRoODU3MTMiIGlua3NjYXBlOmNvbm5lY3Rvci1jdXJ2YXR1cmU9IjAiIHN0eWxlPSJmaWxsOiNmZmZmZmY7ZmlsbC1vcGFjaXR5OjAuNyIgZD0ibSAyMC41Nyw0My4zMiBjIC0wLjA2LDAgLTAuMTIsLTAuMDEgLTAuMTcsLTAuMDQgTCA5LjExLDM2Ljc2IEMgOSwzNi43IDguOTMsMzYuNTkgOC45MywzNi40NiBWIDIzLjM4IGMgMCwtMC4xMiAwLjA3LC0wLjI0IDAuMTgsLTAuMyAwLjEsLTAuMDYgMC4yMywtMC4wNiAwLjM0LDAgbCAxMS4zLDYuNTIgYyAwLjEsMC4wNiAwLjE2LDAuMTggMC4xNiwwLjMgdiAxMy4wOCBjIDAsMC4xMyAtMC4wNiwwLjI0IC0wLjE2LDAuMyAtMC4wNiwwLjAzIC0wLjEyLDAuMDQgLTAuMTgsMC4wNCB6Ii8+JiN4YTsmI3hhOzxwYXRoIGlkPSJwYXRoODU3MjEiIGlua3NjYXBlOmNvbm5lY3Rvci1jdXJ2YXR1cmU9IjAiIHN0eWxlPSJmaWxsOiNmZmZmZmY7ZmlsbC1vcGFjaXR5OjAuNCIgZD0ibSAyMy43Nyw0My4zMiBjIC0wLjA2LDAgLTAuMTIsLTAuMDEgLTAuMTcsLTAuMDQgLTAuMSwtMC4wNiAtMC4xNywtMC4xNyAtMC4xNywtMC4zIHYgLTEzIGMgMCwtMC4xMiAwLjA3LC0wLjIzIDAuMTcsLTAuMyBsIDExLjI5LC02LjUxIGMgMC4xMSwtMC4wNiAwLjI0LC0wLjA2IDAuMzQsMCAwLjExLDAuMDYgMC4xNywwLjE3IDAuMTcsMC4yOSB2IDEzIGMgMCwwLjEzIC0wLjA2LDAuMjQgLTAuMTcsMC4zIGwgLTExLjI5LDYuNTIgYyAtMC4wNSwwLjAzIC0wLjExLDAuMDQgLTAuMTcsMC4wNCB6Ii8+JiN4YTs8cGF0aCBpZD0icGF0aDg2MDI3IiBpbmtzY2FwZTpjb25uZWN0b3ItY3VydmF0dXJlPSIwIiBzdHlsZT0iZmlsbDojZmZmZmZmO2ZpbGwtb3BhY2l0eTowLjE1IiBkPSJNIDIuODYwMDAwNiw1MS43OSBWIDYuNDI5OTk5OCBIIDMyLjI0MDAwMSBsIDIuNTgsLTYuNDM5OTk5NjcgSCAzLjkwMDAwMDYgYyAtMi4xOSwwIC0zLjg2OTk5OTk5LDEuNjc5OTk5OTcgLTMuODY5OTk5OTksMy44Njk5OTk5NyBWIDYwLjU1IGMgMCwyLjE5IDEuNjc5OTk5OTksMy44NyAzLjg2OTk5OTk5LDMuODcgaCA0Ljc2IEwgMTMuODIwMDAxLDUxLjc5IFoiLz48L3N2Zz4=;" parent="1" vertex="1">
          <mxGeometry x="230" y="80" width="44" height="64" as="geometry" />
        </mxCell>
        <mxCell id="HA4ANWcjjfDp0IVUmo1o-2" value="B" style="shape=image;verticalLabelPosition=bottom;labelBackgroundColor=#ffffff;verticalAlign=top;aspect=fixed;imageAspect=0;image=data:image/svg+xml,PHN2ZyB4bWxuczpkYz0iaHR0cDovL3B1cmwub3JnL2RjL2VsZW1lbnRzLzEuMS8iIHhtbG5zOmNjPSJodHRwOi8vY3JlYXRpdmVjb21tb25zLm9yZy9ucyMiIHhtbG5zOnJkZj0iaHR0cDovL3d3dy53My5vcmcvMTk5OS8wMi8yMi1yZGYtc3ludGF4LW5zIyIgeG1sbnM6c3ZnPSJodHRwOi8vd3d3LnczLm9yZy8yMDAwL3N2ZyIgeG1sbnM9Imh0dHA6Ly93d3cudzMub3JnLzIwMDAvc3ZnIiB4bWxuczpzb2RpcG9kaT0iaHR0cDovL3NvZGlwb2RpLnNvdXJjZWZvcmdlLm5ldC9EVEQvc29kaXBvZGktMC5kdGQiIHhtbG5zOmlua3NjYXBlPSJodHRwOi8vd3d3Lmlua3NjYXBlLm9yZy9uYW1lc3BhY2VzL2lua3NjYXBlIiB2ZXJzaW9uPSIxLjEiIGlkPSJzdmc4NTcyNyIgaW5rc2NhcGU6dmVyc2lvbj0iMC45Mi4zICgyNDA1NTQ2LCAyMDE4LTAzLTExKSIgc29kaXBvZGk6ZG9jbmFtZT0ibW9iaWxlX2FwcHMuc3ZnIiB4PSIwcHgiIHk9IjBweCIgdmlld0JveD0iMCAwIDQ0LjMzIDY0LjMzOTk5MyIgeG1sOnNwYWNlPSJwcmVzZXJ2ZSIgd2lkdGg9IjQ0LjMzMDAwMiIgaGVpZ2h0PSI2NC4zMzk5OTYiPjxtZXRhZGF0YSBpZD0ibWV0YWRhdGE0NDI3Ij48cmRmOlJERj48Y2M6V29yayByZGY6YWJvdXQ9IiI+PGRjOmZvcm1hdD5pbWFnZS9zdmcreG1sPC9kYzpmb3JtYXQ+PGRjOnR5cGUgcmRmOnJlc291cmNlPSJodHRwOi8vcHVybC5vcmcvZGMvZGNtaXR5cGUvU3RpbGxJbWFnZSIvPjxkYzp0aXRsZS8+PC9jYzpXb3JrPjwvcmRmOlJERj48L21ldGFkYXRhPjxkZWZzIGlkPSJkZWZzNDQyNSI+JiN4YTsJJiN4YTsmI3hhOwkmI3hhOyYjeGE7CSYjeGE7JiN4YTsJJiN4YTsmI3hhOwkmI3hhOyYjeGE7CSYjeGE7JiN4YTsJJiN4YTsmI3hhOwkmI3hhOyYjeGE7CSYjeGE7JiN4YTsJJiN4YTsmI3hhOwkJJiN4YTsJJiN4YTsJCSYjeGE7CSYjeGE7CQkmI3hhOwkmI3hhOwkJJiN4YTsJJiN4YTsJCSYjeGE7CSYjeGE7CQkmI3hhOwkmI3hhOwkJJiN4YTsJJiN4YTsJCSYjeGE7CSYjeGE7CQkmI3hhOwkmI3hhOwkJJiN4YTsJPC9kZWZzPiYjeGE7PGZpbHRlciBpZD0iZmlsdGVyXzIiPiYjeGE7CTxmZUdhdXNzaWFuQmx1ciBpZD0iZmVHYXVzc2lhbkJsdXI4NTYzNiIgc3RkRGV2aWF0aW9uPSIyIi8+JiN4YTs8L2ZpbHRlcj4mI3hhOzxzb2RpcG9kaTpuYW1lZHZpZXcgYm9yZGVyY29sb3I9IiM2NjY2NjYiIGJvcmRlcm9wYWNpdHk9IjEiIGZpdC1tYXJnaW4tYm90dG9tPSIwIiBmaXQtbWFyZ2luLWxlZnQ9IjAiIGZpdC1tYXJnaW4tcmlnaHQ9IjAiIGZpdC1tYXJnaW4tdG9wPSIwIiBncmlkdG9sZXJhbmNlPSIxMCIgZ3VpZGV0b2xlcmFuY2U9IjEwIiBpZD0ibmFtZWR2aWV3ODU3MjkiIGlua3NjYXBlOmN1cnJlbnQtbGF5ZXI9InN2Zzg1NzI3IiBpbmtzY2FwZTpjeD0iLTEzLjk5MTk2MyIgaW5rc2NhcGU6Y3k9IjI4LjEwNjUyNCIgaW5rc2NhcGU6cGFnZW9wYWNpdHk9IjAiIGlua3NjYXBlOnBhZ2VzaGFkb3c9IjIiIGlua3NjYXBlOndpbmRvdy1oZWlnaHQ9IjEwMTciIGlua3NjYXBlOndpbmRvdy1tYXhpbWl6ZWQ9IjEiIGlua3NjYXBlOndpbmRvdy13aWR0aD0iMTkyMCIgaW5rc2NhcGU6d2luZG93LXg9Ii04IiBpbmtzY2FwZTp3aW5kb3cteT0iLTgiIGlua3NjYXBlOnpvb209IjcuMzIwNTc3NCIgb2JqZWN0dG9sZXJhbmNlPSIxMCIgcGFnZWNvbG9yPSIjZmZmZmZmIiBzaG93Z3JpZD0iZmFsc2UiPiYjeGE7CTwvc29kaXBvZGk6bmFtZWR2aWV3PiYjeGE7JiN4YTs8cGF0aCBpZD0icGF0aDg1NjQ5IiBpbmtzY2FwZTpjb25uZWN0b3ItY3VydmF0dXJlPSIwIiBzdHlsZT0iZmlsbDojM2UzZTNlIiBkPSJtIDQ0LjMzLDYwLjQ4IGMgMCwyLjE0IC0xLjczLDMuODYgLTMuODYsMy44NiBIIDMuODYgQyAxLjczLDY0LjM0IDAsNjIuNjIgMCw2MC40OCBWIDMuODYgQyAwLDEuNzMgMS43MywwIDMuODYsMCBoIDM2LjYxIGMgMi4xMywwIDMuODYsMS43MyAzLjg2LDMuODYgeiIvPiYjeGE7JiN4YTs8cmVjdCBpZD0icmVjdDg1NjU3IiB4PSIyLjg2MDAwMDYiIHk9IjYuNDI5OTk5OCIgc3R5bGU9ImZpbGw6IzU5YjRkOSIgd2lkdGg9IjM4LjYxMDAwMSIgaGVpZ2h0PSI0NS4zMzAwMDIiLz4mI3hhOyYjeGE7PHBhdGggaWQ9InBhdGg4NTY2NSIgaW5rc2NhcGU6Y29ubmVjdG9yLWN1cnZhdHVyZT0iMCIgc3R5bGU9ImZpbGw6I2ZmZmZmZiIgZD0ibSAyNS44OSw1OC4wNSBjIDAsMi4wNSAtMS42NywzLjcxIC0zLjcyLDMuNzEgLTIuMDUsMCAtMy43MiwtMS42NiAtMy43MiwtMy43MSAwLC0yLjA2IDEuNjcsLTMuNzIgMy43MiwtMy43MiAyLjA1LDAgMy43MiwxLjY2IDMuNzIsMy43MiB6Ii8+JiN4YTsmI3hhOzxwYXRoIGlkPSJwYXRoODU2NzMiIGlua3NjYXBlOmNvbm5lY3Rvci1jdXJ2YXR1cmU9IjAiIHN0eWxlPSJmaWxsOiNiOGQ0MzIiIGQ9Im0gMjQuNiw1OC4wNiBjIDAsMS4zNCAtMS4wOSwyLjQzIC0yLjQzLDIuNDMgLTEuMzUsMCAtMi40NCwtMS4wOSAtMi40NCwtMi40MyAwLC0xLjM1IDEuMDksLTIuNDQgMi40NCwtMi40NCAxLjM0LDAgMi40MywxLjA5IDIuNDMsMi40NCB6Ii8+JiN4YTsmI3hhOyYjeGE7JiN4YTsmI3hhOyYjeGE7PHBhdGggaWQ9InBhdGg4NTY5NyIgaW5rc2NhcGU6Y29ubmVjdG9yLWN1cnZhdHVyZT0iMCIgc3R5bGU9ImZpbGw6I2ZmZmZmZiIgZD0ibSAyOC43NCwzLjYzIGMgMCwwLjUyIC0wLjQyLDAuOTQgLTAuOTUsMC45NCBIIDE2LjU0IGMgLTAuNTIsMCAtMC45NSwtMC40MiAtMC45NSwtMC45NCAwLC0wLjUzIDAuNDMsLTAuOTYgMC45NSwtMC45NiBoIDExLjI1IGMgMC41MywwIDAuOTUsMC40MyAwLjk1LDAuOTYgeiIvPiYjeGE7JiN4YTs8cGF0aCBpZD0icGF0aDg1NzA1IiBpbmtzY2FwZTpjb25uZWN0b3ItY3VydmF0dXJlPSIwIiBzdHlsZT0iZmlsbDojZmZmZmZmIiBkPSJtIDIyLjIsMjcuNDIgYyAtMC4wNiwwIC0wLjExLC0wLjAxIC0wLjE3LC0wLjA0IEwgMTAuNywyMC44NCBjIC0wLjEsLTAuMDcgLTAuMTcsLTAuMTggLTAuMTcsLTAuMyAwLC0wLjEyIDAuMDcsLTAuMjQgMC4xNywtMC4zIGwgMTEuMjYsLTYuNDkgYyAwLjExLC0wLjA2IDAuMjQsLTAuMDYgMC4zNCwwIGwgMTEuMzMsNi41NCBjIDAuMTEsMC4wNiAwLjE3LDAuMTcgMC4xNywwLjI5IDAsMC4xMyAtMC4wNiwwLjI0IC0wLjE3LDAuMyBsIC0xMS4yNSw2LjUgYyAtMC4wNiwwLjAzIC0wLjExLDAuMDQgLTAuMTgsMC4wNCB6Ii8+JiN4YTsmI3hhOzxwYXRoIGlkPSJwYXRoODU3MTMiIGlua3NjYXBlOmNvbm5lY3Rvci1jdXJ2YXR1cmU9IjAiIHN0eWxlPSJmaWxsOiNmZmZmZmY7ZmlsbC1vcGFjaXR5OjAuNyIgZD0ibSAyMC41Nyw0My4zMiBjIC0wLjA2LDAgLTAuMTIsLTAuMDEgLTAuMTcsLTAuMDQgTCA5LjExLDM2Ljc2IEMgOSwzNi43IDguOTMsMzYuNTkgOC45MywzNi40NiBWIDIzLjM4IGMgMCwtMC4xMiAwLjA3LC0wLjI0IDAuMTgsLTAuMyAwLjEsLTAuMDYgMC4yMywtMC4wNiAwLjM0LDAgbCAxMS4zLDYuNTIgYyAwLjEsMC4wNiAwLjE2LDAuMTggMC4xNiwwLjMgdiAxMy4wOCBjIDAsMC4xMyAtMC4wNiwwLjI0IC0wLjE2LDAuMyAtMC4wNiwwLjAzIC0wLjEyLDAuMDQgLTAuMTgsMC4wNCB6Ii8+JiN4YTsmI3hhOzxwYXRoIGlkPSJwYXRoODU3MjEiIGlua3NjYXBlOmNvbm5lY3Rvci1jdXJ2YXR1cmU9IjAiIHN0eWxlPSJmaWxsOiNmZmZmZmY7ZmlsbC1vcGFjaXR5OjAuNCIgZD0ibSAyMy43Nyw0My4zMiBjIC0wLjA2LDAgLTAuMTIsLTAuMDEgLTAuMTcsLTAuMDQgLTAuMSwtMC4wNiAtMC4xNywtMC4xNyAtMC4xNywtMC4zIHYgLTEzIGMgMCwtMC4xMiAwLjA3LC0wLjIzIDAuMTcsLTAuMyBsIDExLjI5LC02LjUxIGMgMC4xMSwtMC4wNiAwLjI0LC0wLjA2IDAuMzQsMCAwLjExLDAuMDYgMC4xNywwLjE3IDAuMTcsMC4yOSB2IDEzIGMgMCwwLjEzIC0wLjA2LDAuMjQgLTAuMTcsMC4zIGwgLTExLjI5LDYuNTIgYyAtMC4wNSwwLjAzIC0wLjExLDAuMDQgLTAuMTcsMC4wNCB6Ii8+JiN4YTs8cGF0aCBpZD0icGF0aDg2MDI3IiBpbmtzY2FwZTpjb25uZWN0b3ItY3VydmF0dXJlPSIwIiBzdHlsZT0iZmlsbDojZmZmZmZmO2ZpbGwtb3BhY2l0eTowLjE1IiBkPSJNIDIuODYwMDAwNiw1MS43OSBWIDYuNDI5OTk5OCBIIDMyLjI0MDAwMSBsIDIuNTgsLTYuNDM5OTk5NjcgSCAzLjkwMDAwMDYgYyAtMi4xOSwwIC0zLjg2OTk5OTk5LDEuNjc5OTk5OTcgLTMuODY5OTk5OTksMy44Njk5OTk5NyBWIDYwLjU1IGMgMCwyLjE5IDEuNjc5OTk5OTksMy44NyAzLjg2OTk5OTk5LDMuODcgaCA0Ljc2IEwgMTMuODIwMDAxLDUxLjc5IFoiLz48L3N2Zz4=;" parent="1" vertex="1">
          <mxGeometry x="230" y="187" width="44" height="64" as="geometry" />
        </mxCell>
        <mxCell id="HA4ANWcjjfDp0IVUmo1o-28" style="edgeStyle=orthogonalEdgeStyle;rounded=0;orthogonalLoop=1;jettySize=auto;html=1;entryX=0;entryY=0.75;entryDx=0;entryDy=0;startArrow=classic;startFill=1;strokeColor=#A50040;fillColor=#d80073;" parent="1" source="HA4ANWcjjfDp0IVUmo1o-3" target="HA4ANWcjjfDp0IVUmo1o-24" edge="1">
          <mxGeometry relative="1" as="geometry" />
        </mxCell>
        <mxCell id="HA4ANWcjjfDp0IVUmo1o-30" value="TCP" style="edgeLabel;html=1;align=center;verticalAlign=middle;resizable=0;points=[];" parent="HA4ANWcjjfDp0IVUmo1o-28" vertex="1" connectable="0">
          <mxGeometry x="-0.4058" y="2" relative="1" as="geometry">
            <mxPoint x="6.34" y="2" as="offset" />
          </mxGeometry>
        </mxCell>
        <mxCell id="HA4ANWcjjfDp0IVUmo1o-3" value="C" style="shape=image;verticalLabelPosition=bottom;labelBackgroundColor=#ffffff;verticalAlign=top;aspect=fixed;imageAspect=0;image=data:image/svg+xml,PHN2ZyB4bWxuczpkYz0iaHR0cDovL3B1cmwub3JnL2RjL2VsZW1lbnRzLzEuMS8iIHhtbG5zOmNjPSJodHRwOi8vY3JlYXRpdmVjb21tb25zLm9yZy9ucyMiIHhtbG5zOnJkZj0iaHR0cDovL3d3dy53My5vcmcvMTk5OS8wMi8yMi1yZGYtc3ludGF4LW5zIyIgeG1sbnM6c3ZnPSJodHRwOi8vd3d3LnczLm9yZy8yMDAwL3N2ZyIgeG1sbnM9Imh0dHA6Ly93d3cudzMub3JnLzIwMDAvc3ZnIiB4bWxuczpzb2RpcG9kaT0iaHR0cDovL3NvZGlwb2RpLnNvdXJjZWZvcmdlLm5ldC9EVEQvc29kaXBvZGktMC5kdGQiIHhtbG5zOmlua3NjYXBlPSJodHRwOi8vd3d3Lmlua3NjYXBlLm9yZy9uYW1lc3BhY2VzL2lua3NjYXBlIiB2ZXJzaW9uPSIxLjEiIGlkPSJzdmc4NTcyNyIgaW5rc2NhcGU6dmVyc2lvbj0iMC45Mi4zICgyNDA1NTQ2LCAyMDE4LTAzLTExKSIgc29kaXBvZGk6ZG9jbmFtZT0ibW9iaWxlX2FwcHMuc3ZnIiB4PSIwcHgiIHk9IjBweCIgdmlld0JveD0iMCAwIDQ0LjMzIDY0LjMzOTk5MyIgeG1sOnNwYWNlPSJwcmVzZXJ2ZSIgd2lkdGg9IjQ0LjMzMDAwMiIgaGVpZ2h0PSI2NC4zMzk5OTYiPjxtZXRhZGF0YSBpZD0ibWV0YWRhdGE0NDI3Ij48cmRmOlJERj48Y2M6V29yayByZGY6YWJvdXQ9IiI+PGRjOmZvcm1hdD5pbWFnZS9zdmcreG1sPC9kYzpmb3JtYXQ+PGRjOnR5cGUgcmRmOnJlc291cmNlPSJodHRwOi8vcHVybC5vcmcvZGMvZGNtaXR5cGUvU3RpbGxJbWFnZSIvPjxkYzp0aXRsZS8+PC9jYzpXb3JrPjwvcmRmOlJERj48L21ldGFkYXRhPjxkZWZzIGlkPSJkZWZzNDQyNSI+JiN4YTsJJiN4YTsmI3hhOwkmI3hhOyYjeGE7CSYjeGE7JiN4YTsJJiN4YTsmI3hhOwkmI3hhOyYjeGE7CSYjeGE7JiN4YTsJJiN4YTsmI3hhOwkmI3hhOyYjeGE7CSYjeGE7JiN4YTsJJiN4YTsmI3hhOwkJJiN4YTsJJiN4YTsJCSYjeGE7CSYjeGE7CQkmI3hhOwkmI3hhOwkJJiN4YTsJJiN4YTsJCSYjeGE7CSYjeGE7CQkmI3hhOwkmI3hhOwkJJiN4YTsJJiN4YTsJCSYjeGE7CSYjeGE7CQkmI3hhOwkmI3hhOwkJJiN4YTsJPC9kZWZzPiYjeGE7PGZpbHRlciBpZD0iZmlsdGVyXzIiPiYjeGE7CTxmZUdhdXNzaWFuQmx1ciBpZD0iZmVHYXVzc2lhbkJsdXI4NTYzNiIgc3RkRGV2aWF0aW9uPSIyIi8+JiN4YTs8L2ZpbHRlcj4mI3hhOzxzb2RpcG9kaTpuYW1lZHZpZXcgYm9yZGVyY29sb3I9IiM2NjY2NjYiIGJvcmRlcm9wYWNpdHk9IjEiIGZpdC1tYXJnaW4tYm90dG9tPSIwIiBmaXQtbWFyZ2luLWxlZnQ9IjAiIGZpdC1tYXJnaW4tcmlnaHQ9IjAiIGZpdC1tYXJnaW4tdG9wPSIwIiBncmlkdG9sZXJhbmNlPSIxMCIgZ3VpZGV0b2xlcmFuY2U9IjEwIiBpZD0ibmFtZWR2aWV3ODU3MjkiIGlua3NjYXBlOmN1cnJlbnQtbGF5ZXI9InN2Zzg1NzI3IiBpbmtzY2FwZTpjeD0iLTEzLjk5MTk2MyIgaW5rc2NhcGU6Y3k9IjI4LjEwNjUyNCIgaW5rc2NhcGU6cGFnZW9wYWNpdHk9IjAiIGlua3NjYXBlOnBhZ2VzaGFkb3c9IjIiIGlua3NjYXBlOndpbmRvdy1oZWlnaHQ9IjEwMTciIGlua3NjYXBlOndpbmRvdy1tYXhpbWl6ZWQ9IjEiIGlua3NjYXBlOndpbmRvdy13aWR0aD0iMTkyMCIgaW5rc2NhcGU6d2luZG93LXg9Ii04IiBpbmtzY2FwZTp3aW5kb3cteT0iLTgiIGlua3NjYXBlOnpvb209IjcuMzIwNTc3NCIgb2JqZWN0dG9sZXJhbmNlPSIxMCIgcGFnZWNvbG9yPSIjZmZmZmZmIiBzaG93Z3JpZD0iZmFsc2UiPiYjeGE7CTwvc29kaXBvZGk6bmFtZWR2aWV3PiYjeGE7JiN4YTs8cGF0aCBpZD0icGF0aDg1NjQ5IiBpbmtzY2FwZTpjb25uZWN0b3ItY3VydmF0dXJlPSIwIiBzdHlsZT0iZmlsbDojM2UzZTNlIiBkPSJtIDQ0LjMzLDYwLjQ4IGMgMCwyLjE0IC0xLjczLDMuODYgLTMuODYsMy44NiBIIDMuODYgQyAxLjczLDY0LjM0IDAsNjIuNjIgMCw2MC40OCBWIDMuODYgQyAwLDEuNzMgMS43MywwIDMuODYsMCBoIDM2LjYxIGMgMi4xMywwIDMuODYsMS43MyAzLjg2LDMuODYgeiIvPiYjeGE7JiN4YTs8cmVjdCBpZD0icmVjdDg1NjU3IiB4PSIyLjg2MDAwMDYiIHk9IjYuNDI5OTk5OCIgc3R5bGU9ImZpbGw6IzU5YjRkOSIgd2lkdGg9IjM4LjYxMDAwMSIgaGVpZ2h0PSI0NS4zMzAwMDIiLz4mI3hhOyYjeGE7PHBhdGggaWQ9InBhdGg4NTY2NSIgaW5rc2NhcGU6Y29ubmVjdG9yLWN1cnZhdHVyZT0iMCIgc3R5bGU9ImZpbGw6I2ZmZmZmZiIgZD0ibSAyNS44OSw1OC4wNSBjIDAsMi4wNSAtMS42NywzLjcxIC0zLjcyLDMuNzEgLTIuMDUsMCAtMy43MiwtMS42NiAtMy43MiwtMy43MSAwLC0yLjA2IDEuNjcsLTMuNzIgMy43MiwtMy43MiAyLjA1LDAgMy43MiwxLjY2IDMuNzIsMy43MiB6Ii8+JiN4YTsmI3hhOzxwYXRoIGlkPSJwYXRoODU2NzMiIGlua3NjYXBlOmNvbm5lY3Rvci1jdXJ2YXR1cmU9IjAiIHN0eWxlPSJmaWxsOiNiOGQ0MzIiIGQ9Im0gMjQuNiw1OC4wNiBjIDAsMS4zNCAtMS4wOSwyLjQzIC0yLjQzLDIuNDMgLTEuMzUsMCAtMi40NCwtMS4wOSAtMi40NCwtMi40MyAwLC0xLjM1IDEuMDksLTIuNDQgMi40NCwtMi40NCAxLjM0LDAgMi40MywxLjA5IDIuNDMsMi40NCB6Ii8+JiN4YTsmI3hhOyYjeGE7JiN4YTsmI3hhOyYjeGE7PHBhdGggaWQ9InBhdGg4NTY5NyIgaW5rc2NhcGU6Y29ubmVjdG9yLWN1cnZhdHVyZT0iMCIgc3R5bGU9ImZpbGw6I2ZmZmZmZiIgZD0ibSAyOC43NCwzLjYzIGMgMCwwLjUyIC0wLjQyLDAuOTQgLTAuOTUsMC45NCBIIDE2LjU0IGMgLTAuNTIsMCAtMC45NSwtMC40MiAtMC45NSwtMC45NCAwLC0wLjUzIDAuNDMsLTAuOTYgMC45NSwtMC45NiBoIDExLjI1IGMgMC41MywwIDAuOTUsMC40MyAwLjk1LDAuOTYgeiIvPiYjeGE7JiN4YTs8cGF0aCBpZD0icGF0aDg1NzA1IiBpbmtzY2FwZTpjb25uZWN0b3ItY3VydmF0dXJlPSIwIiBzdHlsZT0iZmlsbDojZmZmZmZmIiBkPSJtIDIyLjIsMjcuNDIgYyAtMC4wNiwwIC0wLjExLC0wLjAxIC0wLjE3LC0wLjA0IEwgMTAuNywyMC44NCBjIC0wLjEsLTAuMDcgLTAuMTcsLTAuMTggLTAuMTcsLTAuMyAwLC0wLjEyIDAuMDcsLTAuMjQgMC4xNywtMC4zIGwgMTEuMjYsLTYuNDkgYyAwLjExLC0wLjA2IDAuMjQsLTAuMDYgMC4zNCwwIGwgMTEuMzMsNi41NCBjIDAuMTEsMC4wNiAwLjE3LDAuMTcgMC4xNywwLjI5IDAsMC4xMyAtMC4wNiwwLjI0IC0wLjE3LDAuMyBsIC0xMS4yNSw2LjUgYyAtMC4wNiwwLjAzIC0wLjExLDAuMDQgLTAuMTgsMC4wNCB6Ii8+JiN4YTsmI3hhOzxwYXRoIGlkPSJwYXRoODU3MTMiIGlua3NjYXBlOmNvbm5lY3Rvci1jdXJ2YXR1cmU9IjAiIHN0eWxlPSJmaWxsOiNmZmZmZmY7ZmlsbC1vcGFjaXR5OjAuNyIgZD0ibSAyMC41Nyw0My4zMiBjIC0wLjA2LDAgLTAuMTIsLTAuMDEgLTAuMTcsLTAuMDQgTCA5LjExLDM2Ljc2IEMgOSwzNi43IDguOTMsMzYuNTkgOC45MywzNi40NiBWIDIzLjM4IGMgMCwtMC4xMiAwLjA3LC0wLjI0IDAuMTgsLTAuMyAwLjEsLTAuMDYgMC4yMywtMC4wNiAwLjM0LDAgbCAxMS4zLDYuNTIgYyAwLjEsMC4wNiAwLjE2LDAuMTggMC4xNiwwLjMgdiAxMy4wOCBjIDAsMC4xMyAtMC4wNiwwLjI0IC0wLjE2LDAuMyAtMC4wNiwwLjAzIC0wLjEyLDAuMDQgLTAuMTgsMC4wNCB6Ii8+JiN4YTsmI3hhOzxwYXRoIGlkPSJwYXRoODU3MjEiIGlua3NjYXBlOmNvbm5lY3Rvci1jdXJ2YXR1cmU9IjAiIHN0eWxlPSJmaWxsOiNmZmZmZmY7ZmlsbC1vcGFjaXR5OjAuNCIgZD0ibSAyMy43Nyw0My4zMiBjIC0wLjA2LDAgLTAuMTIsLTAuMDEgLTAuMTcsLTAuMDQgLTAuMSwtMC4wNiAtMC4xNywtMC4xNyAtMC4xNywtMC4zIHYgLTEzIGMgMCwtMC4xMiAwLjA3LC0wLjIzIDAuMTcsLTAuMyBsIDExLjI5LC02LjUxIGMgMC4xMSwtMC4wNiAwLjI0LC0wLjA2IDAuMzQsMCAwLjExLDAuMDYgMC4xNywwLjE3IDAuMTcsMC4yOSB2IDEzIGMgMCwwLjEzIC0wLjA2LDAuMjQgLTAuMTcsMC4zIGwgLTExLjI5LDYuNTIgYyAtMC4wNSwwLjAzIC0wLjExLDAuMDQgLTAuMTcsMC4wNCB6Ii8+JiN4YTs8cGF0aCBpZD0icGF0aDg2MDI3IiBpbmtzY2FwZTpjb25uZWN0b3ItY3VydmF0dXJlPSIwIiBzdHlsZT0iZmlsbDojZmZmZmZmO2ZpbGwtb3BhY2l0eTowLjE1IiBkPSJNIDIuODYwMDAwNiw1MS43OSBWIDYuNDI5OTk5OCBIIDMyLjI0MDAwMSBsIDIuNTgsLTYuNDM5OTk5NjcgSCAzLjkwMDAwMDYgYyAtMi4xOSwwIC0zLjg2OTk5OTk5LDEuNjc5OTk5OTcgLTMuODY5OTk5OTksMy44Njk5OTk5NyBWIDYwLjU1IGMgMCwyLjE5IDEuNjc5OTk5OTksMy44NyAzLjg2OTk5OTk5LDMuODcgaCA0Ljc2IEwgMTMuODIwMDAxLDUxLjc5IFoiLz48L3N2Zz4=;" parent="1" vertex="1">
          <mxGeometry x="230" y="292" width="44" height="64" as="geometry" />
        </mxCell>
        <mxCell id="HA4ANWcjjfDp0IVUmo1o-16" value="&lt;font style=&quot;font-size: 15px&quot;&gt;Map(设备标识,TCP连接):&lt;br&gt;(A,TCP连接A)&lt;br&gt;&lt;/font&gt;" style="shape=note;size=15;align=left;spacingLeft=10;html=1;whiteSpace=wrap;fillColor=#fff2cc;strokeColor=#d6b656;" parent="1" vertex="1">
          <mxGeometry x="899.15" y="57" width="200" height="53" as="geometry" />
        </mxCell>
        <mxCell id="HA4ANWcjjfDp0IVUmo1o-35" style="edgeStyle=orthogonalEdgeStyle;rounded=0;orthogonalLoop=1;jettySize=auto;html=1;entryX=1;entryY=0.25;entryDx=0;entryDy=0;startArrow=classic;startFill=1;strokeColor=#d79b00;fillColor=#ffe6cc;" parent="1" source="HA4ANWcjjfDp0IVUmo1o-23" target="HA4ANWcjjfDp0IVUmo1o-24" edge="1">
          <mxGeometry relative="1" as="geometry" />
        </mxCell>
        <mxCell id="Zy9IC4ivWu8HJ_MTJ5Cn-3" value="TCP" style="edgeLabel;html=1;align=center;verticalAlign=middle;resizable=0;points=[];" vertex="1" connectable="0" parent="HA4ANWcjjfDp0IVUmo1o-35">
          <mxGeometry x="-0.5248" relative="1" as="geometry">
            <mxPoint as="offset" />
          </mxGeometry>
        </mxCell>
        <mxCell id="HA4ANWcjjfDp0IVUmo1o-23" value="" style="shape=image;verticalLabelPosition=bottom;labelBackgroundColor=#ffffff;verticalAlign=top;aspect=fixed;imageAspect=0;image=data:image/svg+xml,PHN2ZyB4bWxuczpjYz0iaHR0cDovL2NyZWF0aXZlY29tbW9ucy5vcmcvbnMjIiB4bWxuczpkYz0iaHR0cDovL3B1cmwub3JnL2RjL2VsZW1lbnRzLzEuMS8iIHhtbG5zOmlua3NjYXBlPSJodHRwOi8vd3d3Lmlua3NjYXBlLm9yZy9uYW1lc3BhY2VzL2lua3NjYXBlIiB4bWxuczpyZGY9Imh0dHA6Ly93d3cudzMub3JnLzE5OTkvMDIvMjItcmRmLXN5bnRheC1ucyMiIHhtbG5zOnNvZGlwb2RpPSJodHRwOi8vc29kaXBvZGkuc291cmNlZm9yZ2UubmV0L0RURC9zb2RpcG9kaS0wLmR0ZCIgeG1sbnM6c3ZnPSJodHRwOi8vd3d3LnczLm9yZy8yMDAwL3N2ZyIgeG1sbnM9Imh0dHA6Ly93d3cudzMub3JnLzIwMDAvc3ZnIiB4bWxuczp4bGluaz0iaHR0cDovL3d3dy53My5vcmcvMTk5OS94bGluayIgdmVyc2lvbj0iMS4xIiBpZD0ic3ZnMTM4NzI0IiBpbmtzY2FwZTp2ZXJzaW9uPSIwLjkyLjMgKDI0MDU1NDYsIDIwMTgtMDMtMTEpIiBzb2RpcG9kaTpkb2NuYW1lPSJhenVyZV92aXJ0dWFsX21hY2hpbmUuc3ZnIiB4PSIwcHgiIHk9IjBweCIgdmlld0JveD0iMCAwIDgwLjMzIDU5LjA2IiBzdHlsZT0iZW5hYmxlLWJhY2tncm91bmQ6bmV3IDAgMCA4MC4zMyA1OS4wNjsiIHhtbDpzcGFjZT0icHJlc2VydmUiPiYjeGE7PHNvZGlwb2RpOm5hbWVkdmlldyBib3JkZXJjb2xvcj0iIzY2NjY2NiIgYm9yZGVyb3BhY2l0eT0iMSIgZml0LW1hcmdpbi1ib3R0b209IjAiIGZpdC1tYXJnaW4tbGVmdD0iMCIgZml0LW1hcmdpbi1yaWdodD0iMCIgZml0LW1hcmdpbi10b3A9IjAiIGdyaWR0b2xlcmFuY2U9IjEwIiBndWlkZXRvbGVyYW5jZT0iMTAiIGlkPSJuYW1lZHZpZXcxMzg3MjYiIGlua3NjYXBlOmN1cnJlbnQtbGF5ZXI9InN2ZzEzODcyNCIgaW5rc2NhcGU6Y3g9IjUzLjUzMTY3NyIgaW5rc2NhcGU6Y3k9IjM5LjM3MTEzMyIgaW5rc2NhcGU6cGFnZW9wYWNpdHk9IjAiIGlua3NjYXBlOnBhZ2VzaGFkb3c9IjIiIGlua3NjYXBlOndpbmRvdy1oZWlnaHQ9IjEwMTciIGlua3NjYXBlOndpbmRvdy1tYXhpbWl6ZWQ9IjEiIGlua3NjYXBlOndpbmRvdy13aWR0aD0iMTkyMCIgaW5rc2NhcGU6d2luZG93LXg9Ii04IiBpbmtzY2FwZTp3aW5kb3cteT0iLTgiIGlua3NjYXBlOnpvb209IjEwLjczNjY4NyIgb2JqZWN0dG9sZXJhbmNlPSIxMCIgcGFnZWNvbG9yPSIjZmZmZmZmIiBzaG93Z3JpZD0iZmFsc2UiPiYjeGE7CTwvc29kaXBvZGk6bmFtZWR2aWV3PiYjeGE7PGcgaWQ9ImcxMzg3MjIiIHRyYW5zZm9ybT0idHJhbnNsYXRlKC0wLjc2MjAwMjY1LC0wLjc0OTk5NDI3KSI+JiN4YTsJPHRpdGxlIGlkPSJ0aXRsZTEzODY5MiI+UGFnZS0xPC90aXRsZT4mI3hhOwk8ZyBpZD0iZ3JvdXA4NjIyLTEiIHRyYW5zZm9ybT0idHJhbnNsYXRlKDAuNzUwMTI0LC0wLjc1MDkwNikiPiYjeGE7CQk8dGl0bGUgaWQ9InRpdGxlMTM4Njk0Ij5BenVyZSBWaXJ0dWFsIE1hY2hpbmU8L3RpdGxlPiYjeGE7CQk8ZyBpZD0ic2hhcGU4NjIzLTIiIHRyYW5zZm9ybT0idHJhbnNsYXRlKDI2LjUwNDcsLTcuNDc3NSkiPiYjeGE7CQkJPHRpdGxlIGlkPSJ0aXRsZTEzODY5NiI+cGF0aDYyMDM8L3RpdGxlPiYjeGE7CQkJPHBhdGggaWQ9InBhdGgxMzg2OTgiIGlua3NjYXBlOmNvbm5lY3Rvci1jdXJ2YXR1cmU9IjAiIHN0eWxlPSJmaWxsOiNDNkUxRjY7IiBkPSJNNDMuMjIsNjAuNTZIMTQuNjVjLTIuNzMsMC00LjQ2LDAtNS43My0wLjEzICAgICBIOC42N2MtMS0wLjEtMS45OC0wLjM3LTIuOS0wLjhsLTAuMTUtMC4wNmMtNC45MS0yLjMtNy4wMy04LjE1LTQuNzMtMTMuMDZjMS4yNi0yLjY5LDMuNjctNC42Nyw2LjU1LTUuMzggICAgIGMxLjQzLTAuMzQsMi45My0wLjM2LDQuMzctMC4wNmMxLjQ5LTQuMjMsNS40Ny03LjA3LDkuOTUtNy4xMmMxLjYxLTAuMDEsMy4yLDAuMzYsNC42NSwxLjA4YzEuODYtMy4wNSw1LjE3LTQuOTEsOC43NC00LjkyICAgICBjNS4xNiwwLjA5LDkuNSwzLjg5LDEwLjI2LDljNS44NSwxLjM1LDkuNSw3LjIsOC4xNCwxMy4wNWMtMC45NCw0LjA4LTQuMTUsNy4yNS04LjIzLDguMTZDNDQuNjMsNjAuNDgsNDMuOTMsNjAuNTYsNDMuMjIsNjAuNTZ6ICAgICAiLz4mI3hhOwkJPC9nPiYjeGE7CQk8ZyBpZD0ic2hhcGU4NjI0LTQiIHRyYW5zZm9ybT0idHJhbnNsYXRlKDMwLjQ4NTQsLTguODEyNSkiPiYjeGE7CQkJPHRpdGxlIGlkPSJ0aXRsZTEzODcwMSI+cmVjdDYyMDU8L3RpdGxlPiYjeGE7CQkJPHJlY3QgaWQ9InJlY3QxMzg3MDMiIHg9IjAiIHk9IjEwLjMxIiBzdHlsZT0iZmlsbDojMzMzMzMzOyIgd2lkdGg9IjMwLjc1IiBoZWlnaHQ9IjUwLjI1Ii8+JiN4YTsJCTwvZz4mI3hhOwkJPGcgaWQ9InNoYXBlODYyNS02IiB0cmFuc2Zvcm09InRyYW5zbGF0ZSgzNS43MzU0LC00OS4zMTI1KSI+JiN4YTsJCQk8dGl0bGUgaWQ9InRpdGxlMTM4NzA2Ij5yZWN0NjIwNzwvdGl0bGU+JiN4YTsJCQk8cmVjdCBpZD0icmVjdDEzODcwOCIgeD0iMCIgeT0iNTYuMDYiIHN0eWxlPSJmaWxsOiM5MDkwOTA7IiB3aWR0aD0iMjAuMjUiIGhlaWdodD0iNC41Ii8+JiN4YTsJCTwvZz4mI3hhOwkJPGcgaWQ9InNoYXBlODYyNi04IiB0cmFuc2Zvcm09InRyYW5zbGF0ZSgzNS43MzU0LC0zOS41NjI1KSI+JiN4YTsJCQk8dGl0bGUgaWQ9InRpdGxlMTM4NzExIj5yZWN0NjIwOTwvdGl0bGU+JiN4YTsJCQk8cmVjdCBpZD0icmVjdDEzODcxMyIgeD0iMCIgeT0iNTYuMDYiIHN0eWxlPSJmaWxsOiM5MDkwOTA7IiB3aWR0aD0iMjAuMjUiIGhlaWdodD0iNC41Ii8+JiN4YTsJCTwvZz4mI3hhOwkJPGcgaWQ9InNoYXBlODYyNy0xMCI+JiN4YTsJCQk8dGl0bGUgaWQ9InRpdGxlMTM4NzE2Ij5wYXRoNjIxOTwvdGl0bGU+JiN4YTsJCQk8cGF0aCBpZD0icGF0aDEzODcxOCIgaW5rc2NhcGU6Y29ubmVjdG9yLWN1cnZhdHVyZT0iMCIgc3R5bGU9ImZpbGw6I0FBRDJGMjsiIGQ9Ik0xMC40OSw2MC4yOUMzLjI2LDU4LjY2LTEuMjksNTEuNDgsMC4zNCw0NC4yNSAgICAgYzEuMTMtNS4wMiw1LjAzLTguOTUsMTAuMDQtMTAuMTNjMC45NC02LjMsNi4zLTExLDEyLjY3LTExLjFjNC40LDAuMDEsOC40OSwyLjMsMTAuNzksNi4wNmMxLjc3LTAuODgsMy43Mi0xLjM0LDUuNjktMS4zNCAgICAgYzUuNTMsMC4wNSwxMC40NCwzLjU1LDEyLjI5LDguNzZjMS43OC0wLjM4LDMuNjMtMC4zNSw1LjQsMC4wN2M2LjUxLDEuNTksMTAuNDksOC4xNSw4LjksMTQuNjZjLTAuODcsMy41Ny0zLjMyLDYuNTUtNi42NSw4LjExICAgICBsLTAuMTksMC4wOGMtMS4xMywwLjUzLTIuMzUsMC44Ni0zLjU5LDAuOThoLTAuM2MtMS41OCwwLjEzLTMuNzEsMC4xNi03LjA4LDAuMTZIMTMuMDZDMTIuMiw2MC41NywxMS4zMyw2MC40OCwxMC40OSw2MC4yOXoiLz4mI3hhOwkJPC9nPiYjeGE7CTwvZz4mI3hhOzwvZz4mI3hhOzwvc3ZnPg==;" parent="1" vertex="1">
          <mxGeometry x="780" y="57" width="109.15" height="80.5" as="geometry" />
        </mxCell>
        <mxCell id="HA4ANWcjjfDp0IVUmo1o-4" style="edgeStyle=orthogonalEdgeStyle;rounded=0;orthogonalLoop=1;jettySize=auto;html=1;entryX=1;entryY=0.5;entryDx=0;entryDy=0;startArrow=classic;startFill=1;strokeColor=#3700CC;fillColor=#6a00ff;" parent="1" target="HA4ANWcjjfDp0IVUmo1o-2" edge="1">
          <mxGeometry relative="1" as="geometry">
            <mxPoint x="490" y="219" as="sourcePoint" />
          </mxGeometry>
        </mxCell>
        <mxCell id="HA4ANWcjjfDp0IVUmo1o-8" value="TCP" style="edgeLabel;html=1;align=center;verticalAlign=middle;resizable=0;points=[];" parent="HA4ANWcjjfDp0IVUmo1o-4" vertex="1" connectable="0">
          <mxGeometry x="0.4078" y="-1" relative="1" as="geometry">
            <mxPoint x="32" y="1" as="offset" />
          </mxGeometry>
        </mxCell>
        <mxCell id="HA4ANWcjjfDp0IVUmo1o-24" value="Nginx" style="shape=image;verticalLabelPosition=bottom;labelBackgroundColor=#ffffff;verticalAlign=top;aspect=fixed;imageAspect=0;image=data:image/svg+xml,PHN2ZyB4bWxuczpjYz0iaHR0cDovL2NyZWF0aXZlY29tbW9ucy5vcmcvbnMjIiB4bWxuczpkYz0iaHR0cDovL3B1cmwub3JnL2RjL2VsZW1lbnRzLzEuMS8iIHhtbG5zOmlua3NjYXBlPSJodHRwOi8vd3d3Lmlua3NjYXBlLm9yZy9uYW1lc3BhY2VzL2lua3NjYXBlIiB4bWxuczpyZGY9Imh0dHA6Ly93d3cudzMub3JnLzE5OTkvMDIvMjItcmRmLXN5bnRheC1ucyMiIHhtbG5zOnNvZGlwb2RpPSJodHRwOi8vc29kaXBvZGkuc291cmNlZm9yZ2UubmV0L0RURC9zb2RpcG9kaS0wLmR0ZCIgeG1sbnM6c3ZnPSJodHRwOi8vd3d3LnczLm9yZy8yMDAwL3N2ZyIgeG1sbnM9Imh0dHA6Ly93d3cudzMub3JnLzIwMDAvc3ZnIiB4bWxuczp4bGluaz0iaHR0cDovL3d3dy53My5vcmcvMTk5OS94bGluayIgdmVyc2lvbj0iMS4xIiBpZD0ic3ZnMTY2NTgyIiBpbmtzY2FwZTp2ZXJzaW9uPSIwLjkyLjMgKDI0MDU1NDYsIDIwMTgtMDMtMTEpIiBzb2RpcG9kaTpkb2NuYW1lPSJtYWluZnJhbWUuc3ZnIiB4PSIwcHgiIHk9IjBweCIgdmlld0JveD0iMCAwIDQ4Ljg3IDY1LjIyIiBzdHlsZT0iZW5hYmxlLWJhY2tncm91bmQ6bmV3IDAgMCA0OC44NyA2NS4yMjsiIHhtbDpzcGFjZT0icHJlc2VydmUiPiYjeGE7PHNvZGlwb2RpOm5hbWVkdmlldyBib3JkZXJjb2xvcj0iIzY2NjY2NiIgYm9yZGVyb3BhY2l0eT0iMSIgZml0LW1hcmdpbi1ib3R0b209IjAiIGZpdC1tYXJnaW4tbGVmdD0iMCIgZml0LW1hcmdpbi1yaWdodD0iMCIgZml0LW1hcmdpbi10b3A9IjAiIGdyaWR0b2xlcmFuY2U9IjEwIiBndWlkZXRvbGVyYW5jZT0iMTAiIGlkPSJuYW1lZHZpZXcxNjY1ODQiIGlua3NjYXBlOmN1cnJlbnQtbGF5ZXI9InN2ZzE2NjU4MiIgaW5rc2NhcGU6Y3g9IjMyLjU4MDYzNyIgaW5rc2NhcGU6Y3k9IjQzLjQ4MTQzIiBpbmtzY2FwZTpwYWdlb3BhY2l0eT0iMCIgaW5rc2NhcGU6cGFnZXNoYWRvdz0iMiIgaW5rc2NhcGU6d2luZG93LWhlaWdodD0iMTAxNyIgaW5rc2NhcGU6d2luZG93LW1heGltaXplZD0iMSIgaW5rc2NhcGU6d2luZG93LXdpZHRoPSIxOTIwIiBpbmtzY2FwZTp3aW5kb3cteD0iLTgiIGlua3NjYXBlOndpbmRvdy15PSItOCIgaW5rc2NhcGU6em9vbT0iOS45NzA0NDYiIG9iamVjdHRvbGVyYW5jZT0iMTAiIHBhZ2Vjb2xvcj0iI2ZmZmZmZiIgc2hvd2dyaWQ9ImZhbHNlIj4mI3hhOwk8L3NvZGlwb2RpOm5hbWVkdmlldz4mI3hhOzxnIGlkPSJnMTY2NTgwIiB0cmFuc2Zvcm09InRyYW5zbGF0ZSgtMi41NTg1MjEyZS01KSI+JiN4YTsJPHRpdGxlIGlkPSJ0aXRsZTE2NjU3MyI+UGFnZS0xPC90aXRsZT4mI3hhOwk8ZyBpZD0ic2hhcGU4NDIxLTEiPiYjeGE7CQk8dGl0bGUgaWQ9InRpdGxlMTY2NTc1Ij5NYWluZnJhbWU8L3RpdGxlPiYjeGE7CQk8cGF0aCBpZD0icGF0aDE2NjU3NyIgaW5rc2NhcGU6Y29ubmVjdG9yLWN1cnZhdHVyZT0iMCIgc3R5bGU9ImZpbGw6IzNGNTc2NTsiIGQ9Ik00Miw0OS44NWMtMzUuMDQsMC0zNS4wNCwwLTM1LjA0LDAgICAgYy0xLjUzLDAtMi45NywxLjQ0LTIuOTcsMi45N2MwLDMuNDgsMCwzLjQ4LDAsMy40OGMwLDEuNywxLjQ0LDIuOTcsMi45NywyLjk3YzM1LjA0LDAsMzUuMDQsMCwzNS4wNCwwICAgIGMxLjc4LDAsMi45Ny0xLjI3LDIuOTctMi45N2MwLTMuNDgsMC0zLjQ4LDAtMy40OEM0NC45Nyw1MS4yOSw0My43OCw0OS44NSw0Miw0OS44NXogTTEwLjEsNTUuNTRjLTAuMjYsMC0wLjI2LDAtMC4yNiwwICAgIGMtMC41MSwwLTAuOTMtMC41MS0wLjkzLTEuMDJjMC0wLjQzLDAuNDItMC45NCwwLjkzLTAuOTRjMC4yNiwwLDAuMjYsMCwwLjI2LDBjMC41MSwwLDEuMDEsMC41MSwxLjAxLDAuOTQgICAgQzExLjExLDU1LjAzLDEwLjYxLDU1LjU0LDEwLjEsNTUuNTR6IE0zOS43OSw1NS41NGMtMTYuMiwwLTE2LjIsMC0xNi4yLDBjLTAuNDMsMC0wLjk0LTAuNTEtMC45NC0xLjAyICAgIGMwLTAuNDMsMC41MS0wLjk0LDAuOTQtMC45NGMxNi4yLDAsMTYuMiwwLDE2LjIsMGMwLjc3LDAsMS4wMiwwLjUxLDEuMDIsMC45NEM0MC44MSw1NS4wMyw0MC41Niw1NS41NCwzOS43OSw1NS41NHogTTQyLDE2LjIyICAgIGMtMzUuMDQsMC0zNS4wNCwwLTM1LjA0LDBjLTEuNTMsMC0yLjk3LDEuNTMtMi45NywyLjk3YzAsMy40OCwwLDMuNDgsMCwzLjQ4YzAsMS43OSwxLjQ0LDIuOTgsMi45NywyLjk4YzM1LjA0LDAsMzUuMDQsMCwzNS4wNCwwICAgIGMxLjc4LDAsMi45Ny0xLjE5LDIuOTctMi45OGMwLTMuNDgsMC0zLjQ4LDAtMy40OEM0NC45NywxNy43NSw0My43OCwxNi4yMiw0MiwxNi4yMnogTTEwLjEsMjEuOTFjLTAuMjYsMC0wLjI2LDAtMC4yNiwwICAgIGMtMC41MSwwLTAuOTMtMC40My0wLjkzLTAuOTRjMC0wLjUsMC40Mi0xLjAxLDAuOTMtMS4wMWMwLjI2LDAsMC4yNiwwLDAuMjYsMGMwLjUxLDAsMS4wMSwwLjUxLDEuMDEsMS4wMSAgICBDMTEuMTEsMjEuNDgsMTAuNjEsMjEuOTEsMTAuMSwyMS45MXogTTM5Ljc5LDIxLjkxYy0xNi4yLDAtMTYuMiwwLTE2LjIsMGMtMC40MywwLTAuOTQtMC40My0wLjk0LTAuOTRjMC0wLjUsMC41MS0xLjAxLDAuOTQtMS4wMSAgICBjMTYuMiwwLDE2LjIsMCwxNi4yLDBjMC43NywwLDEuMDIsMC41MSwxLjAyLDEuMDFDNDAuODEsMjEuNDgsNDAuNTYsMjEuOTEsMzkuNzksMjEuOTF6IE00Mi4yNSwwQzYuNywwLDYuNywwLDYuNywwICAgIEMyLjk3LDAsMCwzLjA2LDAsNi43OWMwLDUwLjAyLDAsNTAuMDIsMCw1MC4wMmMwLDIuOTcsMS43OCw1LjE4LDQuNSw2LjJjMC45MywyLjIxLDAuOTMsMi4yMSwwLjkzLDIuMjFjOS4wOCwwLDkuMDgsMCw5LjA4LDAgICAgYzEuMDItMS43LDEuMDItMS43LDEuMDItMS43YzE4LjE1LDAsMTguMTUsMCwxOC4xNSwwYzAuNzcsMS43LDAuNzcsMS43LDAuNzcsMS43YzkuMDgsMCw5LjA4LDAsOS4wOCwwICAgIGMxLjE4LTIuMjEsMS4xOC0yLjIxLDEuMTgtMi4yMWMyLjQ2LTEuMDIsNC4xNi0zLjIzLDQuMTYtNi4yYzAtNTAuMDIsMC01MC4wMiwwLTUwLjAyQzQ4Ljg3LDMuMDYsNDUuOTksMCw0Mi4yNSwweiBNNDcuNDMsNTYuODEgICAgYzAsMi45Ny0yLjIxLDUuMTgtNS4xOCw1LjE4Yy0zNS41NSwwLTM1LjU1LDAtMzUuNTUsMGMtMi43MSwwLTUuMTctMi4yMS01LjE3LTUuMThjMC01MC4wMiwwLTUwLjAyLDAtNTAuMDIgICAgYzAtMy4wNSwyLjQ2LTUuMjYsNS4xNy01LjI2YzM1LjU1LDAsMzUuNTUsMCwzNS41NSwwYzIuOTcsMCw1LjE4LDIuMjEsNS4xOCw1LjI2VjU2LjgxeiBNNDIsNS4wMWMtMzUuMDQsMC0zNS4wNCwwLTM1LjA0LDAgICAgYy0xLjUzLDAtMi45NywxLjUzLTIuOTcsMi45N2MwLDMuNDgsMCwzLjQ4LDAsMy40OGMwLDEuNzksMS40NCwyLjk4LDIuOTcsMi45OGMzNS4wNCwwLDM1LjA0LDAsMzUuMDQsMCAgICBjMS43OCwwLDIuOTctMS4xOSwyLjk3LTIuOThjMC0zLjQ4LDAtMy40OCwwLTMuNDhDNDQuOTcsNi41NCw0My43OCw1LjAxLDQyLDUuMDF6IE0xMC4xLDEwLjc4Yy0wLjI2LDAtMC4yNiwwLTAuMjYsMCAgICBjLTAuNTEsMC0wLjkzLTAuNS0wLjkzLTEuMDFzMC40Mi0xLjAyLDAuOTMtMS4wMmMwLjI2LDAsMC4yNiwwLDAuMjYsMGMwLjUxLDAsMS4wMSwwLjUxLDEuMDEsMS4wMlMxMC42MSwxMC43OCwxMC4xLDEwLjc4eiAgICAgTTM5Ljc5LDEwLjc4Yy0xNi4yLDAtMTYuMiwwLTE2LjIsMGMtMC40MywwLTAuOTQtMC41LTAuOTQtMS4wMXMwLjUxLTEuMDIsMC45NC0xLjAyYzE2LjIsMCwxNi4yLDAsMTYuMiwwICAgIGMwLjc3LDAsMS4wMiwwLjUxLDEuMDIsMS4wMlM0MC41NiwxMC43OCwzOS43OSwxMC43OHogTTQyLDI3LjQzYy0zNS4wNCwwLTM1LjA0LDAtMzUuMDQsMGMtMS41MywwLTIuOTcsMS40NC0yLjk3LDIuOTcgICAgYzAsMy40OCwwLDMuNDgsMCwzLjQ4YzAsMS43OSwxLjQ0LDIuOTcsMi45NywyLjk3YzM1LjA0LDAsMzUuMDQsMCwzNS4wNCwwYzEuNzgsMCwyLjk3LTEuMTgsMi45Ny0yLjk3YzAtMy40OCwwLTMuNDgsMC0zLjQ4ICAgIEM0NC45NywyOC44Nyw0My43OCwyNy40Myw0MiwyNy40M3ogTTEwLjEsMzMuMTJjLTAuMjYsMC0wLjI2LDAtMC4yNiwwYy0wLjUxLDAtMC45My0wLjUxLTAuOTMtMC45NGMwLTAuNTEsMC40Mi0xLjAxLDAuOTMtMS4wMSAgICBjMC4yNiwwLDAuMjYsMCwwLjI2LDBjMC41MSwwLDEuMDEsMC41LDEuMDEsMS4wMUMxMS4xMSwzMi42MSwxMC42MSwzMy4xMiwxMC4xLDMzLjEyeiBNMzkuNzksMzMuMTJjLTE2LjIsMC0xNi4yLDAtMTYuMiwwICAgIGMtMC40MywwLTAuOTQtMC41MS0wLjk0LTAuOTRjMC0wLjUxLDAuNTEtMS4wMSwwLjk0LTEuMDFjMTYuMiwwLDE2LjIsMCwxNi4yLDBjMC43NywwLDEuMDIsMC41LDEuMDIsMS4wMSAgICBDNDAuODEsMzIuNjEsNDAuNTYsMzMuMTIsMzkuNzksMzMuMTJ6IE00MiwzOC42NGMtMzUuMDQsMC0zNS4wNCwwLTM1LjA0LDBjLTEuNTMsMC0yLjk3LDEuNDQtMi45NywyLjk3YzAsMy40OCwwLDMuNDgsMCwzLjQ4ICAgIGMwLDEuNzksMS40NCwyLjk3LDIuOTcsMi45N2MzNS4wNCwwLDM1LjA0LDAsMzUuMDQsMGMxLjc4LDAsMi45Ny0xLjE4LDIuOTctMi45N2MwLTMuNDgsMC0zLjQ4LDAtMy40OCAgICBDNDQuOTcsNDAuMDgsNDMuNzgsMzguNjQsNDIsMzguNjR6IE0xMC4xLDQ0LjMzYy0wLjI2LDAtMC4yNiwwLTAuMjYsMGMtMC41MSwwLTAuOTMtMC41MS0wLjkzLTAuOTRjMC0wLjUxLDAuNDItMS4wMiwwLjkzLTEuMDIgICAgYzAuMjYsMCwwLjI2LDAsMC4yNiwwYzAuNTEsMCwxLjAxLDAuNTEsMS4wMSwxLjAyQzExLjExLDQzLjgyLDEwLjYxLDQ0LjMzLDEwLjEsNDQuMzN6IE0zOS43OSw0NC4zM2MtMTYuMiwwLTE2LjIsMC0xNi4yLDAgICAgYy0wLjQzLDAtMC45NC0wLjUxLTAuOTQtMC45NGMwLTAuNTEsMC41MS0xLjAyLDAuOTQtMS4wMmMxNi4yLDAsMTYuMiwwLDE2LjIsMGMwLjc3LDAsMS4wMiwwLjUxLDEuMDIsMS4wMiAgICBDNDAuODEsNDMuODIsNDAuNTYsNDQuMzMsMzkuNzksNDQuMzN6Ii8+JiN4YTsJPC9nPiYjeGE7PC9nPiYjeGE7PC9zdmc+;fontSize=15;" parent="1" vertex="1">
          <mxGeometry x="490" y="140" width="120" height="159.18" as="geometry" />
        </mxCell>
        <mxCell id="HA4ANWcjjfDp0IVUmo1o-36" style="edgeStyle=orthogonalEdgeStyle;rounded=0;orthogonalLoop=1;jettySize=auto;html=1;startArrow=classic;startFill=1;strokeColor=#3700CC;fillColor=#6a00ff;" parent="1" source="HA4ANWcjjfDp0IVUmo1o-31" edge="1">
          <mxGeometry relative="1" as="geometry">
            <mxPoint x="610" y="220" as="targetPoint" />
          </mxGeometry>
        </mxCell>
        <mxCell id="Zy9IC4ivWu8HJ_MTJ5Cn-4" value="TCP" style="edgeLabel;html=1;align=center;verticalAlign=middle;resizable=0;points=[];" vertex="1" connectable="0" parent="HA4ANWcjjfDp0IVUmo1o-36">
          <mxGeometry x="-0.2124" y="-1" relative="1" as="geometry">
            <mxPoint as="offset" />
          </mxGeometry>
        </mxCell>
        <mxCell id="HA4ANWcjjfDp0IVUmo1o-31" value="" style="shape=image;verticalLabelPosition=bottom;labelBackgroundColor=#ffffff;verticalAlign=top;aspect=fixed;imageAspect=0;image=data:image/svg+xml,PHN2ZyB4bWxuczpjYz0iaHR0cDovL2NyZWF0aXZlY29tbW9ucy5vcmcvbnMjIiB4bWxuczpkYz0iaHR0cDovL3B1cmwub3JnL2RjL2VsZW1lbnRzLzEuMS8iIHhtbG5zOmlua3NjYXBlPSJodHRwOi8vd3d3Lmlua3NjYXBlLm9yZy9uYW1lc3BhY2VzL2lua3NjYXBlIiB4bWxuczpyZGY9Imh0dHA6Ly93d3cudzMub3JnLzE5OTkvMDIvMjItcmRmLXN5bnRheC1ucyMiIHhtbG5zOnNvZGlwb2RpPSJodHRwOi8vc29kaXBvZGkuc291cmNlZm9yZ2UubmV0L0RURC9zb2RpcG9kaS0wLmR0ZCIgeG1sbnM6c3ZnPSJodHRwOi8vd3d3LnczLm9yZy8yMDAwL3N2ZyIgeG1sbnM9Imh0dHA6Ly93d3cudzMub3JnLzIwMDAvc3ZnIiB4bWxuczp4bGluaz0iaHR0cDovL3d3dy53My5vcmcvMTk5OS94bGluayIgdmVyc2lvbj0iMS4xIiBpZD0ic3ZnMTM4NzI0IiBpbmtzY2FwZTp2ZXJzaW9uPSIwLjkyLjMgKDI0MDU1NDYsIDIwMTgtMDMtMTEpIiBzb2RpcG9kaTpkb2NuYW1lPSJhenVyZV92aXJ0dWFsX21hY2hpbmUuc3ZnIiB4PSIwcHgiIHk9IjBweCIgdmlld0JveD0iMCAwIDgwLjMzIDU5LjA2IiBzdHlsZT0iZW5hYmxlLWJhY2tncm91bmQ6bmV3IDAgMCA4MC4zMyA1OS4wNjsiIHhtbDpzcGFjZT0icHJlc2VydmUiPiYjeGE7PHNvZGlwb2RpOm5hbWVkdmlldyBib3JkZXJjb2xvcj0iIzY2NjY2NiIgYm9yZGVyb3BhY2l0eT0iMSIgZml0LW1hcmdpbi1ib3R0b209IjAiIGZpdC1tYXJnaW4tbGVmdD0iMCIgZml0LW1hcmdpbi1yaWdodD0iMCIgZml0LW1hcmdpbi10b3A9IjAiIGdyaWR0b2xlcmFuY2U9IjEwIiBndWlkZXRvbGVyYW5jZT0iMTAiIGlkPSJuYW1lZHZpZXcxMzg3MjYiIGlua3NjYXBlOmN1cnJlbnQtbGF5ZXI9InN2ZzEzODcyNCIgaW5rc2NhcGU6Y3g9IjUzLjUzMTY3NyIgaW5rc2NhcGU6Y3k9IjM5LjM3MTEzMyIgaW5rc2NhcGU6cGFnZW9wYWNpdHk9IjAiIGlua3NjYXBlOnBhZ2VzaGFkb3c9IjIiIGlua3NjYXBlOndpbmRvdy1oZWlnaHQ9IjEwMTciIGlua3NjYXBlOndpbmRvdy1tYXhpbWl6ZWQ9IjEiIGlua3NjYXBlOndpbmRvdy13aWR0aD0iMTkyMCIgaW5rc2NhcGU6d2luZG93LXg9Ii04IiBpbmtzY2FwZTp3aW5kb3cteT0iLTgiIGlua3NjYXBlOnpvb209IjEwLjczNjY4NyIgb2JqZWN0dG9sZXJhbmNlPSIxMCIgcGFnZWNvbG9yPSIjZmZmZmZmIiBzaG93Z3JpZD0iZmFsc2UiPiYjeGE7CTwvc29kaXBvZGk6bmFtZWR2aWV3PiYjeGE7PGcgaWQ9ImcxMzg3MjIiIHRyYW5zZm9ybT0idHJhbnNsYXRlKC0wLjc2MjAwMjY1LC0wLjc0OTk5NDI3KSI+JiN4YTsJPHRpdGxlIGlkPSJ0aXRsZTEzODY5MiI+UGFnZS0xPC90aXRsZT4mI3hhOwk8ZyBpZD0iZ3JvdXA4NjIyLTEiIHRyYW5zZm9ybT0idHJhbnNsYXRlKDAuNzUwMTI0LC0wLjc1MDkwNikiPiYjeGE7CQk8dGl0bGUgaWQ9InRpdGxlMTM4Njk0Ij5BenVyZSBWaXJ0dWFsIE1hY2hpbmU8L3RpdGxlPiYjeGE7CQk8ZyBpZD0ic2hhcGU4NjIzLTIiIHRyYW5zZm9ybT0idHJhbnNsYXRlKDI2LjUwNDcsLTcuNDc3NSkiPiYjeGE7CQkJPHRpdGxlIGlkPSJ0aXRsZTEzODY5NiI+cGF0aDYyMDM8L3RpdGxlPiYjeGE7CQkJPHBhdGggaWQ9InBhdGgxMzg2OTgiIGlua3NjYXBlOmNvbm5lY3Rvci1jdXJ2YXR1cmU9IjAiIHN0eWxlPSJmaWxsOiNDNkUxRjY7IiBkPSJNNDMuMjIsNjAuNTZIMTQuNjVjLTIuNzMsMC00LjQ2LDAtNS43My0wLjEzICAgICBIOC42N2MtMS0wLjEtMS45OC0wLjM3LTIuOS0wLjhsLTAuMTUtMC4wNmMtNC45MS0yLjMtNy4wMy04LjE1LTQuNzMtMTMuMDZjMS4yNi0yLjY5LDMuNjctNC42Nyw2LjU1LTUuMzggICAgIGMxLjQzLTAuMzQsMi45My0wLjM2LDQuMzctMC4wNmMxLjQ5LTQuMjMsNS40Ny03LjA3LDkuOTUtNy4xMmMxLjYxLTAuMDEsMy4yLDAuMzYsNC42NSwxLjA4YzEuODYtMy4wNSw1LjE3LTQuOTEsOC43NC00LjkyICAgICBjNS4xNiwwLjA5LDkuNSwzLjg5LDEwLjI2LDljNS44NSwxLjM1LDkuNSw3LjIsOC4xNCwxMy4wNWMtMC45NCw0LjA4LTQuMTUsNy4yNS04LjIzLDguMTZDNDQuNjMsNjAuNDgsNDMuOTMsNjAuNTYsNDMuMjIsNjAuNTZ6ICAgICAiLz4mI3hhOwkJPC9nPiYjeGE7CQk8ZyBpZD0ic2hhcGU4NjI0LTQiIHRyYW5zZm9ybT0idHJhbnNsYXRlKDMwLjQ4NTQsLTguODEyNSkiPiYjeGE7CQkJPHRpdGxlIGlkPSJ0aXRsZTEzODcwMSI+cmVjdDYyMDU8L3RpdGxlPiYjeGE7CQkJPHJlY3QgaWQ9InJlY3QxMzg3MDMiIHg9IjAiIHk9IjEwLjMxIiBzdHlsZT0iZmlsbDojMzMzMzMzOyIgd2lkdGg9IjMwLjc1IiBoZWlnaHQ9IjUwLjI1Ii8+JiN4YTsJCTwvZz4mI3hhOwkJPGcgaWQ9InNoYXBlODYyNS02IiB0cmFuc2Zvcm09InRyYW5zbGF0ZSgzNS43MzU0LC00OS4zMTI1KSI+JiN4YTsJCQk8dGl0bGUgaWQ9InRpdGxlMTM4NzA2Ij5yZWN0NjIwNzwvdGl0bGU+JiN4YTsJCQk8cmVjdCBpZD0icmVjdDEzODcwOCIgeD0iMCIgeT0iNTYuMDYiIHN0eWxlPSJmaWxsOiM5MDkwOTA7IiB3aWR0aD0iMjAuMjUiIGhlaWdodD0iNC41Ii8+JiN4YTsJCTwvZz4mI3hhOwkJPGcgaWQ9InNoYXBlODYyNi04IiB0cmFuc2Zvcm09InRyYW5zbGF0ZSgzNS43MzU0LC0zOS41NjI1KSI+JiN4YTsJCQk8dGl0bGUgaWQ9InRpdGxlMTM4NzExIj5yZWN0NjIwOTwvdGl0bGU+JiN4YTsJCQk8cmVjdCBpZD0icmVjdDEzODcxMyIgeD0iMCIgeT0iNTYuMDYiIHN0eWxlPSJmaWxsOiM5MDkwOTA7IiB3aWR0aD0iMjAuMjUiIGhlaWdodD0iNC41Ii8+JiN4YTsJCTwvZz4mI3hhOwkJPGcgaWQ9InNoYXBlODYyNy0xMCI+JiN4YTsJCQk8dGl0bGUgaWQ9InRpdGxlMTM4NzE2Ij5wYXRoNjIxOTwvdGl0bGU+JiN4YTsJCQk8cGF0aCBpZD0icGF0aDEzODcxOCIgaW5rc2NhcGU6Y29ubmVjdG9yLWN1cnZhdHVyZT0iMCIgc3R5bGU9ImZpbGw6I0FBRDJGMjsiIGQ9Ik0xMC40OSw2MC4yOUMzLjI2LDU4LjY2LTEuMjksNTEuNDgsMC4zNCw0NC4yNSAgICAgYzEuMTMtNS4wMiw1LjAzLTguOTUsMTAuMDQtMTAuMTNjMC45NC02LjMsNi4zLTExLDEyLjY3LTExLjFjNC40LDAuMDEsOC40OSwyLjMsMTAuNzksNi4wNmMxLjc3LTAuODgsMy43Mi0xLjM0LDUuNjktMS4zNCAgICAgYzUuNTMsMC4wNSwxMC40NCwzLjU1LDEyLjI5LDguNzZjMS43OC0wLjM4LDMuNjMtMC4zNSw1LjQsMC4wN2M2LjUxLDEuNTksMTAuNDksOC4xNSw4LjksMTQuNjZjLTAuODcsMy41Ny0zLjMyLDYuNTUtNi42NSw4LjExICAgICBsLTAuMTksMC4wOGMtMS4xMywwLjUzLTIuMzUsMC44Ni0zLjU5LDAuOThoLTAuM2MtMS41OCwwLjEzLTMuNzEsMC4xNi03LjA4LDAuMTZIMTMuMDZDMTIuMiw2MC41NywxMS4zMyw2MC40OCwxMC40OSw2MC4yOXoiLz4mI3hhOwkJPC9nPiYjeGE7CTwvZz4mI3hhOzwvZz4mI3hhOzwvc3ZnPg==;" parent="1" vertex="1">
          <mxGeometry x="790" y="180" width="109.15" height="80.5" as="geometry" />
        </mxCell>
        <mxCell id="HA4ANWcjjfDp0IVUmo1o-37" style="edgeStyle=orthogonalEdgeStyle;rounded=0;orthogonalLoop=1;jettySize=auto;html=1;entryX=1;entryY=0.75;entryDx=0;entryDy=0;startArrow=classic;startFill=1;strokeColor=#A50040;fillColor=#d80073;" parent="1" source="HA4ANWcjjfDp0IVUmo1o-32" target="HA4ANWcjjfDp0IVUmo1o-24" edge="1">
          <mxGeometry relative="1" as="geometry" />
        </mxCell>
        <mxCell id="Zy9IC4ivWu8HJ_MTJ5Cn-5" value="TCP" style="edgeLabel;html=1;align=center;verticalAlign=middle;resizable=0;points=[];" vertex="1" connectable="0" parent="HA4ANWcjjfDp0IVUmo1o-37">
          <mxGeometry x="-0.5014" y="-1" relative="1" as="geometry">
            <mxPoint as="offset" />
          </mxGeometry>
        </mxCell>
        <mxCell id="HA4ANWcjjfDp0IVUmo1o-32" value="" style="shape=image;verticalLabelPosition=bottom;labelBackgroundColor=#ffffff;verticalAlign=top;aspect=fixed;imageAspect=0;image=data:image/svg+xml,PHN2ZyB4bWxuczpjYz0iaHR0cDovL2NyZWF0aXZlY29tbW9ucy5vcmcvbnMjIiB4bWxuczpkYz0iaHR0cDovL3B1cmwub3JnL2RjL2VsZW1lbnRzLzEuMS8iIHhtbG5zOmlua3NjYXBlPSJodHRwOi8vd3d3Lmlua3NjYXBlLm9yZy9uYW1lc3BhY2VzL2lua3NjYXBlIiB4bWxuczpyZGY9Imh0dHA6Ly93d3cudzMub3JnLzE5OTkvMDIvMjItcmRmLXN5bnRheC1ucyMiIHhtbG5zOnNvZGlwb2RpPSJodHRwOi8vc29kaXBvZGkuc291cmNlZm9yZ2UubmV0L0RURC9zb2RpcG9kaS0wLmR0ZCIgeG1sbnM6c3ZnPSJodHRwOi8vd3d3LnczLm9yZy8yMDAwL3N2ZyIgeG1sbnM9Imh0dHA6Ly93d3cudzMub3JnLzIwMDAvc3ZnIiB4bWxuczp4bGluaz0iaHR0cDovL3d3dy53My5vcmcvMTk5OS94bGluayIgdmVyc2lvbj0iMS4xIiBpZD0ic3ZnMTM4NzI0IiBpbmtzY2FwZTp2ZXJzaW9uPSIwLjkyLjMgKDI0MDU1NDYsIDIwMTgtMDMtMTEpIiBzb2RpcG9kaTpkb2NuYW1lPSJhenVyZV92aXJ0dWFsX21hY2hpbmUuc3ZnIiB4PSIwcHgiIHk9IjBweCIgdmlld0JveD0iMCAwIDgwLjMzIDU5LjA2IiBzdHlsZT0iZW5hYmxlLWJhY2tncm91bmQ6bmV3IDAgMCA4MC4zMyA1OS4wNjsiIHhtbDpzcGFjZT0icHJlc2VydmUiPiYjeGE7PHNvZGlwb2RpOm5hbWVkdmlldyBib3JkZXJjb2xvcj0iIzY2NjY2NiIgYm9yZGVyb3BhY2l0eT0iMSIgZml0LW1hcmdpbi1ib3R0b209IjAiIGZpdC1tYXJnaW4tbGVmdD0iMCIgZml0LW1hcmdpbi1yaWdodD0iMCIgZml0LW1hcmdpbi10b3A9IjAiIGdyaWR0b2xlcmFuY2U9IjEwIiBndWlkZXRvbGVyYW5jZT0iMTAiIGlkPSJuYW1lZHZpZXcxMzg3MjYiIGlua3NjYXBlOmN1cnJlbnQtbGF5ZXI9InN2ZzEzODcyNCIgaW5rc2NhcGU6Y3g9IjUzLjUzMTY3NyIgaW5rc2NhcGU6Y3k9IjM5LjM3MTEzMyIgaW5rc2NhcGU6cGFnZW9wYWNpdHk9IjAiIGlua3NjYXBlOnBhZ2VzaGFkb3c9IjIiIGlua3NjYXBlOndpbmRvdy1oZWlnaHQ9IjEwMTciIGlua3NjYXBlOndpbmRvdy1tYXhpbWl6ZWQ9IjEiIGlua3NjYXBlOndpbmRvdy13aWR0aD0iMTkyMCIgaW5rc2NhcGU6d2luZG93LXg9Ii04IiBpbmtzY2FwZTp3aW5kb3cteT0iLTgiIGlua3NjYXBlOnpvb209IjEwLjczNjY4NyIgb2JqZWN0dG9sZXJhbmNlPSIxMCIgcGFnZWNvbG9yPSIjZmZmZmZmIiBzaG93Z3JpZD0iZmFsc2UiPiYjeGE7CTwvc29kaXBvZGk6bmFtZWR2aWV3PiYjeGE7PGcgaWQ9ImcxMzg3MjIiIHRyYW5zZm9ybT0idHJhbnNsYXRlKC0wLjc2MjAwMjY1LC0wLjc0OTk5NDI3KSI+JiN4YTsJPHRpdGxlIGlkPSJ0aXRsZTEzODY5MiI+UGFnZS0xPC90aXRsZT4mI3hhOwk8ZyBpZD0iZ3JvdXA4NjIyLTEiIHRyYW5zZm9ybT0idHJhbnNsYXRlKDAuNzUwMTI0LC0wLjc1MDkwNikiPiYjeGE7CQk8dGl0bGUgaWQ9InRpdGxlMTM4Njk0Ij5BenVyZSBWaXJ0dWFsIE1hY2hpbmU8L3RpdGxlPiYjeGE7CQk8ZyBpZD0ic2hhcGU4NjIzLTIiIHRyYW5zZm9ybT0idHJhbnNsYXRlKDI2LjUwNDcsLTcuNDc3NSkiPiYjeGE7CQkJPHRpdGxlIGlkPSJ0aXRsZTEzODY5NiI+cGF0aDYyMDM8L3RpdGxlPiYjeGE7CQkJPHBhdGggaWQ9InBhdGgxMzg2OTgiIGlua3NjYXBlOmNvbm5lY3Rvci1jdXJ2YXR1cmU9IjAiIHN0eWxlPSJmaWxsOiNDNkUxRjY7IiBkPSJNNDMuMjIsNjAuNTZIMTQuNjVjLTIuNzMsMC00LjQ2LDAtNS43My0wLjEzICAgICBIOC42N2MtMS0wLjEtMS45OC0wLjM3LTIuOS0wLjhsLTAuMTUtMC4wNmMtNC45MS0yLjMtNy4wMy04LjE1LTQuNzMtMTMuMDZjMS4yNi0yLjY5LDMuNjctNC42Nyw2LjU1LTUuMzggICAgIGMxLjQzLTAuMzQsMi45My0wLjM2LDQuMzctMC4wNmMxLjQ5LTQuMjMsNS40Ny03LjA3LDkuOTUtNy4xMmMxLjYxLTAuMDEsMy4yLDAuMzYsNC42NSwxLjA4YzEuODYtMy4wNSw1LjE3LTQuOTEsOC43NC00LjkyICAgICBjNS4xNiwwLjA5LDkuNSwzLjg5LDEwLjI2LDljNS44NSwxLjM1LDkuNSw3LjIsOC4xNCwxMy4wNWMtMC45NCw0LjA4LTQuMTUsNy4yNS04LjIzLDguMTZDNDQuNjMsNjAuNDgsNDMuOTMsNjAuNTYsNDMuMjIsNjAuNTZ6ICAgICAiLz4mI3hhOwkJPC9nPiYjeGE7CQk8ZyBpZD0ic2hhcGU4NjI0LTQiIHRyYW5zZm9ybT0idHJhbnNsYXRlKDMwLjQ4NTQsLTguODEyNSkiPiYjeGE7CQkJPHRpdGxlIGlkPSJ0aXRsZTEzODcwMSI+cmVjdDYyMDU8L3RpdGxlPiYjeGE7CQkJPHJlY3QgaWQ9InJlY3QxMzg3MDMiIHg9IjAiIHk9IjEwLjMxIiBzdHlsZT0iZmlsbDojMzMzMzMzOyIgd2lkdGg9IjMwLjc1IiBoZWlnaHQ9IjUwLjI1Ii8+JiN4YTsJCTwvZz4mI3hhOwkJPGcgaWQ9InNoYXBlODYyNS02IiB0cmFuc2Zvcm09InRyYW5zbGF0ZSgzNS43MzU0LC00OS4zMTI1KSI+JiN4YTsJCQk8dGl0bGUgaWQ9InRpdGxlMTM4NzA2Ij5yZWN0NjIwNzwvdGl0bGU+JiN4YTsJCQk8cmVjdCBpZD0icmVjdDEzODcwOCIgeD0iMCIgeT0iNTYuMDYiIHN0eWxlPSJmaWxsOiM5MDkwOTA7IiB3aWR0aD0iMjAuMjUiIGhlaWdodD0iNC41Ii8+JiN4YTsJCTwvZz4mI3hhOwkJPGcgaWQ9InNoYXBlODYyNi04IiB0cmFuc2Zvcm09InRyYW5zbGF0ZSgzNS43MzU0LC0zOS41NjI1KSI+JiN4YTsJCQk8dGl0bGUgaWQ9InRpdGxlMTM4NzExIj5yZWN0NjIwOTwvdGl0bGU+JiN4YTsJCQk8cmVjdCBpZD0icmVjdDEzODcxMyIgeD0iMCIgeT0iNTYuMDYiIHN0eWxlPSJmaWxsOiM5MDkwOTA7IiB3aWR0aD0iMjAuMjUiIGhlaWdodD0iNC41Ii8+JiN4YTsJCTwvZz4mI3hhOwkJPGcgaWQ9InNoYXBlODYyNy0xMCI+JiN4YTsJCQk8dGl0bGUgaWQ9InRpdGxlMTM4NzE2Ij5wYXRoNjIxOTwvdGl0bGU+JiN4YTsJCQk8cGF0aCBpZD0icGF0aDEzODcxOCIgaW5rc2NhcGU6Y29ubmVjdG9yLWN1cnZhdHVyZT0iMCIgc3R5bGU9ImZpbGw6I0FBRDJGMjsiIGQ9Ik0xMC40OSw2MC4yOUMzLjI2LDU4LjY2LTEuMjksNTEuNDgsMC4zNCw0NC4yNSAgICAgYzEuMTMtNS4wMiw1LjAzLTguOTUsMTAuMDQtMTAuMTNjMC45NC02LjMsNi4zLTExLDEyLjY3LTExLjFjNC40LDAuMDEsOC40OSwyLjMsMTAuNzksNi4wNmMxLjc3LTAuODgsMy43Mi0xLjM0LDUuNjktMS4zNCAgICAgYzUuNTMsMC4wNSwxMC40NCwzLjU1LDEyLjI5LDguNzZjMS43OC0wLjM4LDMuNjMtMC4zNSw1LjQsMC4wN2M2LjUxLDEuNTksMTAuNDksOC4xNSw4LjksMTQuNjZjLTAuODcsMy41Ny0zLjMyLDYuNTUtNi42NSw4LjExICAgICBsLTAuMTksMC4wOGMtMS4xMywwLjUzLTIuMzUsMC44Ni0zLjU5LDAuOThoLTAuM2MtMS41OCwwLjEzLTMuNzEsMC4xNi03LjA4LDAuMTZIMTMuMDZDMTIuMiw2MC41NywxMS4zMyw2MC40OCwxMC40OSw2MC4yOXoiLz4mI3hhOwkJPC9nPiYjeGE7CTwvZz4mI3hhOzwvZz4mI3hhOzwvc3ZnPg==;" parent="1" vertex="1">
          <mxGeometry x="790" y="283.75" width="109.15" height="80.5" as="geometry" />
        </mxCell>
        <mxCell id="HA4ANWcjjfDp0IVUmo1o-33" value="&lt;font style=&quot;font-size: 15px&quot;&gt;Map(设备标识,TCP连接):&lt;br&gt;(B,TCP连接B)&lt;br&gt;&lt;/font&gt;" style="shape=note;size=15;align=left;spacingLeft=10;html=1;whiteSpace=wrap;fillColor=#fff2cc;strokeColor=#d6b656;" parent="1" vertex="1">
          <mxGeometry x="899.15" y="182.25" width="200" height="56" as="geometry" />
        </mxCell>
        <mxCell id="HA4ANWcjjfDp0IVUmo1o-34" value="&lt;font style=&quot;font-size: 15px&quot;&gt;Map(设备标识,TCP连接):&lt;br&gt;(C,TCP连接C)&lt;/font&gt;" style="shape=note;size=15;align=left;spacingLeft=10;html=1;whiteSpace=wrap;fillColor=#fff2cc;strokeColor=#d6b656;" parent="1" vertex="1">
          <mxGeometry x="899.15" y="283.75" width="200" height="46.25" as="geometry" />
        </mxCell>
      </root>
    </mxGraphModel>
  </diagram>
</mxfile>
